<svg xmlns="http://www.w3.org/2000/svg" viewBox="0 0 64 64">
  <!-- body -->
  <ellipse cx="32" cy="36" rx="14" ry="18" fill="#e74c3c"/>
  <!-- head -->
  <circle cx="32" cy="16" r="9" fill="#c0392b"/>
  <!-- eyes -->
  <circle cx="28" cy="15" r="2.5" fill="#fff"/>
  <circle cx="36" cy="15" r="2.5" fill="#fff"/>
  <circle cx="29" cy="15" r="1.2" fill="#111"/>
  <circle cx="37" cy="15" r="1.2" fill="#111"/>
  <!-- antennae -->
  <line x1="26" y1="9" x2="20" y2="2" stroke="#c0392b" stroke-width="2.5" stroke-linecap="round"/>
  <line x1="38" y1="9" x2="44" y2="2" stroke="#c0392b" stroke-width="2.5" stroke-linecap="round"/>
  <circle cx="20" cy="2" r="2" fill="#e74c3c"/>
  <circle cx="44" cy="2" r="2" fill="#e74c3c"/>
  <!-- legs -->
  <line x1="20" y1="30" x2="10" y2="24" stroke="#c0392b" stroke-width="2.5" stroke-linecap="round"/>
  <line x1="19" y1="38" x2="8" y2="38" stroke="#c0392b" stroke-width="2.5" stroke-linecap="round"/>
  <line x1="20" y1="46" x2="10" y2="52" stroke="#c0392b" stroke-width="2.5" stroke-linecap="round"/>
  <line x1="44" y1="30" x2="54" y2="24" stroke="#c0392b" stroke-width="2.5" stroke-linecap="round"/>
  <line x1="45" y1="38" x2="56" y2="38" stroke="#c0392b" stroke-width="2.5" stroke-linecap="round"/>
  <line x1="44" y1="46" x2="54" y2="52" stroke="#c0392b" stroke-width="2.5" stroke-linecap="round"/>
  <!-- body segment lines -->
  <line x1="18" y1="32" x2="46" y2="32" stroke="#a93226" stroke-width="1.5" opacity="0.5"/>
  <line x1="18" y1="40" x2="46" y2="40" stroke="#a93226" stroke-width="1.5" opacity="0.5"/>
  <line x1="20" y1="48" x2="44" y2="48" stroke="#a93226" stroke-width="1.5" opacity="0.5"/>
</svg>
